<?xml version="1.0" standalone="no"?>
<!DOCTYPE svg PUBLIC "-//W3C//DTD SVG 20010904//EN"
 "http://www.w3.org/TR/2001/REC-SVG-20010904/DTD/svg10.dtd">
<svg version="1.0" xmlns="http://www.w3.org/2000/svg"
 width="383.000000pt" height="449.000000pt" viewBox="0 0 383.000000 449.000000"
 preserveAspectRatio="xMidYMid meet">

<g transform="translate(0.000000,449.000000) scale(0.100000,-0.100000)"
fill="#000000" stroke="none">
<path d="M2481 4409 c-81 -14 -227 -65 -309 -110 -401 -215 -595 -682 -471
-1138 74 -274 284 -512 547 -622 86 -35 235 -75 302 -80 l45 -4 -4 180 c-1 99
-4 181 -5 183 -2 1 -29 9 -61 17 -262 69 -427 300 -428 600 -1 126 15 199 64
302 91 190 262 307 470 320 363 24 640 -245 639 -621 -1 -233 -92 -415 -265
-528 -52 -34 -130 -63 -217 -82 l-28 -6 0 -186 0 -185 53 7 c293 37 569 196
717 414 56 83 116 211 142 307 18 66 21 105 22 258 0 217 -14 281 -99 450
-135 271 -376 453 -680 516 -98 20 -333 24 -434 8z"/>
<path d="M400 4220 l0 -170 301 0 300 0 -3 -522 c-5 -571 -6 -589 -65 -658
-72 -86 -231 -103 -369 -39 -27 13 -80 54 -118 92 -38 37 -72 64 -75 59 -3 -5
-48 -73 -100 -150 -55 -83 -91 -147 -88 -156 20 -51 223 -169 347 -201 100
-26 317 -31 421 -11 184 37 324 136 394 280 79 161 84 230 85 1014 l0 632
-515 0 -515 0 0 -170z"/>
<path d="M2553 3703 l-113 -75 0 -85 c0 -71 2 -84 15 -80 8 4 61 37 118 76
l104 69 109 -70 c60 -39 115 -73 122 -75 9 -4 12 16 12 81 l0 86 -115 75 c-64
41 -121 75 -128 74 -7 0 -63 -34 -124 -76z"/>
<path d="M2560 3357 l-115 -73 -3 -87 c-1 -48 0 -87 3 -87 3 0 57 33 119 74
l114 74 108 -70 c60 -39 115 -73 122 -75 10 -4 12 14 10 83 l-3 88 -114 73
c-63 40 -117 73 -120 73 -3 0 -58 -33 -121 -73z"/>
<path d="M154 2275 c-4 -8 -4 -22 0 -30 5 -13 207 -15 1741 -15 l1735 0 0 30
0 30 -1735 0 c-1534 0 -1736 -2 -1741 -15z"/>
<path d="M855 2049 c-82 -12 -226 -54 -283 -83 -131 -67 -238 -178 -283 -294
-27 -72 -37 -238 -19 -321 27 -125 113 -233 240 -300 77 -41 237 -93 400 -131
271 -62 372 -108 416 -192 28 -55 11 -140 -37 -185 -54 -49 -116 -67 -252 -71
-144 -5 -241 7 -362 45 -83 26 -209 86 -277 130 -21 14 -40 24 -42 22 -4 -4
-85 -198 -117 -281 l-18 -47 32 -20 c126 -78 306 -141 491 -173 157 -26 417
-21 537 10 321 86 489 273 489 546 0 221 -138 388 -399 480 -41 15 -174 51
-295 81 -325 81 -396 123 -396 238 0 131 101 197 315 205 184 6 377 -42 518
-129 l47 -29 11 27 c56 141 118 317 114 323 -11 17 -201 93 -290 115 -170 43
-383 57 -540 34z"/>
<path d="M2040 1845 l0 -175 715 0 715 0 0 175 0 175 -715 0 -715 0 0 -175z"/>
<path d="M2040 820 l0 -660 740 0 740 0 0 170 0 170 -525 0 -525 0 0 221 0
221 440 -4 440 -5 0 169 0 168 -440 0 -440 0 0 104 0 104 -215 1 -215 0 0
-659z"/>
</g>
</svg>
